<svg width="18" height="18" viewBox="0 0 18 18" fill="none" xmlns="http://www.w3.org/2000/svg">
<path d="M2.6 17H15.4C15.8243 17 16.2313 16.8314 16.5314 16.5314C16.8314 16.2313 17 15.8243 17 15.4V2.6C17 2.17565 16.8314 1.76869 16.5314 1.46863C16.2313 1.16857 15.8243 1 15.4 1H5.8C5.37565 1 4.96869 1.16857 4.66863 1.46863C4.36857 1.76869 4.2 2.17565 4.2 2.6V15.4C4.2 15.8243 4.03143 16.2313 3.73137 16.5314C3.43131 16.8314 3.02435 17 2.6 17ZM2.6 17C2.17565 17 1.76869 16.8314 1.46863 16.5314C1.16857 16.2313 1 15.8243 1 15.4V8.2C1 7.32 1.72 6.6 2.6 6.6H4.2" stroke="#6B7280" stroke-width="1.5" stroke-linecap="round" stroke-linejoin="round"/>
<path d="M13.7999 10.6H7.3999" stroke="#6B7280" stroke-width="1.5" stroke-linecap="round" stroke-linejoin="round"/>
<path d="M11.3999 13.8H7.3999" stroke="#6B7280" stroke-width="1.5" stroke-linecap="round" stroke-linejoin="round"/>
<path d="M7.3999 4.19995H13.7999V7.39995H7.3999V4.19995Z" stroke="#6B7280" stroke-width="1.5" stroke-linecap="round" stroke-linejoin="round"/>
</svg>
