<svg width="225" height="170" viewBox="0 0 225 170" fill="none" xmlns="http://www.w3.org/2000/svg">
<path d="M114.503 170C161.209 170 199.071 132.148 199.071 85.456C199.071 38.7636 161.209 0.911987 114.503 0.911987C67.798 0.911987 29.9358 38.7636 29.9358 85.456C29.9358 132.148 67.798 170 114.503 170Z" fill="#DBE8EC"/>
<path d="M224.993 68.9809V60.4798C224.993 58.8588 224.349 57.3041 223.203 56.1578C222.056 55.0116 220.501 54.3676 218.879 54.3676H197.299C195.678 54.3676 194.122 53.7236 192.976 52.5773C191.829 51.4311 191.185 49.8764 191.185 48.2553V39.7543C191.185 38.1332 191.829 36.5786 192.976 35.4323C194.122 34.286 195.678 33.642 197.299 33.642H197.98C198.783 33.642 199.578 33.4839 200.32 33.1768C201.062 32.8696 201.736 32.4194 202.304 31.8518C202.871 31.2842 203.322 30.6104 203.629 29.8689C203.936 29.1273 204.094 28.3325 204.094 27.5298V19.0288C204.094 18.2261 203.936 17.4313 203.629 16.6897C203.322 15.9481 202.871 15.2743 202.304 14.7067C201.736 14.1392 201.062 13.6889 200.32 13.3818C199.578 13.0746 198.783 12.9165 197.98 12.9165H41.1884C39.5669 12.9165 38.0117 13.5605 36.8652 14.7067C35.7186 15.853 35.0744 17.4077 35.0744 19.0288V27.5298C35.0744 28.3325 35.2326 29.1273 35.5398 29.8689C35.8471 30.6104 36.2974 31.2842 36.8652 31.8518C37.4329 32.4194 38.1069 32.8696 38.8487 33.1768C39.5905 33.4839 40.3855 33.642 41.1884 33.642C41.9913 33.642 42.7863 33.8001 43.5281 34.1073C44.2699 34.4145 44.9439 34.8647 45.5116 35.4323C46.0793 35.9999 46.5297 36.6737 46.8369 37.4152C47.1442 38.1568 47.3023 38.9516 47.3023 39.7543V48.2553C47.3023 49.058 47.1442 49.8528 46.8369 50.5944C46.5297 51.336 46.0793 52.0098 45.5116 52.5773C44.9439 53.1449 44.2699 53.5951 43.5281 53.9023C42.7863 54.2095 41.9913 54.3676 41.1884 54.3676H17.5452C15.9236 54.3676 14.3685 55.0116 13.2219 56.1578C12.0753 57.3041 11.4312 58.8588 11.4312 60.4798V68.9809C11.4312 70.602 12.0753 72.1566 13.2219 73.3029C14.3685 74.4492 15.9236 75.0931 17.5452 75.0931H26.8224C27.6253 75.0931 28.4203 75.2512 29.1621 75.5584C29.9039 75.8656 30.5779 76.3158 31.1456 76.8834C31.7134 77.4509 32.1637 78.1248 32.471 78.8663C32.7782 79.6079 32.9364 80.4027 32.9364 81.2054V89.7065C32.9364 90.5091 32.7782 91.304 32.471 92.0455C32.1637 92.7871 31.7134 93.4609 31.1456 94.0285C30.5779 94.5961 29.9039 95.0463 29.1621 95.3535C28.4203 95.6606 27.6253 95.8187 26.8224 95.8187H26.8C25.9971 95.8187 25.202 95.9768 24.4603 96.284C23.7185 96.5912 23.0445 97.0414 22.4768 97.609C21.909 98.1765 21.4587 98.8504 21.1514 99.5919C20.8442 100.334 20.686 101.128 20.686 101.931V110.432C20.686 112.053 21.3302 113.608 22.4768 114.754C23.6233 115.9 25.1785 116.544 26.8 116.544H28.1422C29.7637 116.544 31.3188 117.188 32.4654 118.334C33.612 119.481 34.2562 121.035 34.2562 122.656V131.158C34.2562 131.96 34.098 132.755 33.7908 133.497C33.4835 134.238 33.0332 134.912 32.4654 135.48C31.8977 136.047 31.2237 136.497 30.4819 136.805C29.7401 137.112 28.9451 137.27 28.1422 137.27H6.11396C4.49244 137.27 2.93733 137.914 1.79074 139.06C0.644147 140.206 0 141.761 0 143.382V151.883C0 152.686 0.158142 153.481 0.465397 154.222C0.772652 154.964 1.223 155.638 1.79074 156.205C2.35847 156.773 3.03247 157.223 3.77425 157.53C4.51603 157.837 5.31107 157.995 6.11396 157.995H201.263C202.066 157.995 202.861 157.837 203.603 157.53C204.344 157.223 205.018 156.773 205.586 156.205C206.154 155.638 206.604 154.964 206.911 154.222C207.219 153.481 207.377 152.686 207.377 151.883V143.382C207.377 141.761 206.733 140.206 205.586 139.06C204.44 137.914 202.884 137.27 201.263 137.27H195.962C195.159 137.27 194.364 137.112 193.622 136.805C192.88 136.497 192.206 136.047 191.639 135.48C191.071 134.912 190.62 134.238 190.313 133.497C190.006 132.755 189.848 131.96 189.848 131.158V122.656C189.848 121.854 190.006 121.059 190.313 120.317C190.62 119.576 191.071 118.902 191.639 118.334C192.206 117.767 192.88 117.317 193.622 117.009C194.364 116.702 195.159 116.544 195.962 116.544H208.461C209.264 116.544 210.059 116.386 210.801 116.079C211.543 115.772 212.217 115.322 212.785 114.754C213.352 114.186 213.803 113.513 214.11 112.771C214.417 112.029 214.575 111.235 214.575 110.432V101.931C214.575 101.128 214.417 100.333 214.11 99.5919C213.803 98.8503 213.352 98.1765 212.785 97.609C212.217 97.0414 211.543 96.5912 210.801 96.284C210.059 95.9768 209.264 95.8187 208.461 95.8187H204.67C203.048 95.8187 201.493 95.1748 200.346 94.0285C199.2 92.8822 198.556 91.3275 198.556 89.7065V81.2054C198.556 79.5843 199.2 78.0296 200.346 76.8834C201.493 75.7371 203.048 75.0931 204.67 75.0931H218.879C220.501 75.0931 222.056 74.4492 223.203 73.3029C224.349 72.1566 224.993 70.602 224.993 68.9809Z" fill="#DBE8EC"/>
<path d="M149.112 10.615H165.403" stroke="#B9D4DB" stroke-width="3" stroke-miterlimit="10" stroke-linecap="round"/>
<path d="M149.112 15.3088H165.403" stroke="#B9D4DB" stroke-width="3" stroke-miterlimit="10" stroke-linecap="round"/>
<path d="M149.112 20.0027H165.403" stroke="#B9D4DB" stroke-width="3" stroke-miterlimit="10" stroke-linecap="round"/>
<path d="M160.397 141.26H176.688" stroke="#B9D4DB" stroke-width="3" stroke-miterlimit="10" stroke-linecap="round"/>
<path d="M160.397 145.953H176.688" stroke="#B9D4DB" stroke-width="3" stroke-miterlimit="10" stroke-linecap="round"/>
<path d="M160.397 150.647H176.688" stroke="#B9D4DB" stroke-width="3" stroke-miterlimit="10" stroke-linecap="round"/>
<path d="M25.2061 63.6218H41.4965" stroke="#B9D4DB" stroke-width="3" stroke-miterlimit="10" stroke-linecap="round"/>
<path d="M25.2061 68.3156H41.4965" stroke="#B9D4DB" stroke-width="3" stroke-miterlimit="10" stroke-linecap="round"/>
<path d="M25.2061 73.0094H41.4965" stroke="#B9D4DB" stroke-width="3" stroke-miterlimit="10" stroke-linecap="round"/>
<path d="M203.991 125.745L140.873 132.093L77.7546 125.745C77.4896 125.718 77.2439 125.594 77.0653 125.396C76.8866 125.199 76.7877 124.942 76.7877 124.676L75.3003 120.327L76.7877 49.0764L140.873 55.5218L204.958 49.0764L206.371 120.907L204.958 124.676C204.958 124.942 204.859 125.199 204.68 125.397C204.501 125.594 204.256 125.718 203.991 125.745Z" fill="#E06714"/>
<path d="M206.371 120.907L140.873 127.226L75.3003 120.327L76.7877 45.3976C76.7877 45.2475 76.8192 45.099 76.8801 44.9618C76.941 44.8245 77.03 44.7016 77.1414 44.6009C77.2528 44.5002 77.3841 44.4239 77.5267 44.3771C77.6694 44.3302 77.8203 44.3137 77.9698 44.3288L140.873 50.6553L203.775 44.3288C203.925 44.3137 204.076 44.3302 204.219 44.3771C204.361 44.4239 204.492 44.5002 204.604 44.6009C204.715 44.7016 204.804 44.8246 204.865 44.9618C204.926 45.099 204.958 45.2475 204.958 45.3976L206.371 120.907Z" fill="#EE781D"/>
<path d="M140.356 122.199L203.341 116.073L200.714 44.6364L145.058 50.2342L140.356 122.199Z" fill="#E06714"/>
<path d="M140.356 42.2763L195.415 36.0887L197.966 116.596L140.356 122.199V42.2763Z" fill="#E06714"/>
<path d="M143.451 41.7606L85.5557 40.7294L88.6503 119.105L140.357 122.199L143.451 41.7606Z" fill="#E06714"/>
<path d="M140.872 38.0223L195.931 31.8347L199.8 112.531L140.872 117.945V38.0223Z" fill="#F9AE2B"/>
<path d="M140.872 115.273V117.945L199.8 112.531L199.672 109.871L140.872 115.273Z" fill="#E59413"/>
<path d="M140.872 38.0223L82.9766 36.9911L86.0712 115.367L140.872 117.945V38.0223Z" fill="#F9AE2B"/>
<path d="M86.0713 115.367L140.872 117.945V115.193L86.0713 112.614V115.367Z" fill="#E59413"/>
<path d="M89.7171 89.2175C89.8826 95.5176 92.0942 101.593 96.0177 106.526C99.9413 111.458 105.364 114.981 111.466 116.562L135.586 117.696V41.3739C135.586 41.3739 117.362 42.6675 98.4649 37.2668L88.3538 37.0868L89.7171 89.2175ZM171.627 115.119C177.58 110.873 182.37 105.198 185.557 98.6173C188.744 92.0364 190.225 84.7603 189.864 77.4577L187.654 32.7649L174.301 34.2655C162.095 40.4438 147.168 44.3161 147.168 44.3161V117.367L171.627 115.119Z" fill="#E59413"/>
<path d="M140.873 38.0223C140.873 38.0223 171.69 30.03 180.974 18.6862L183.568 71.164C184.071 81.3368 180.997 91.3648 174.88 99.5097C168.763 107.655 159.988 113.403 150.076 115.758L140.873 117.945V38.0223Z" fill="#F9AE2B"/>
<path d="M149.065 38.0224L140.873 117.945C140.873 117.945 151.305 117.157 152.123 116.911C161.283 108.511 166.499 94.3957 165.256 81.8565L160.262 31.4862C156.947 32.8462 153.698 34.0234 150.833 34.9895C149.783 36.8156 149.065 38.0224 149.065 38.0224Z" fill="#E59413"/>
<path d="M140.873 38.0223C140.873 38.0223 149.77 23.069 150.801 18.6862L157.063 81.8564C157.748 88.761 156.613 95.7244 153.773 102.055C150.933 108.386 146.486 113.864 140.873 117.945L140.873 38.0223ZM140.873 38.0223C140.873 38.0223 115.471 39.827 93.5503 30.2878L95.0037 85.866C95.1766 92.4764 97.6011 98.8298 101.876 103.876C106.152 108.921 112.022 112.357 118.515 113.615L140.873 117.945L140.873 38.0223Z" fill="#F9AE2B"/>
<path d="M140.873 38.0223C141.317 44.6826 141.55 51.3428 141.708 58.003C141.807 61.3331 141.829 64.6632 141.887 67.9933L141.946 77.9837L141.89 87.974C141.83 91.3041 141.811 94.6342 141.711 97.9643C141.554 104.625 141.32 111.285 140.873 117.945C140.425 111.285 140.192 104.625 140.034 97.9643C139.934 94.6342 139.915 91.3041 139.855 87.974L139.799 77.9837L139.858 67.9933C139.916 64.6632 139.938 61.3331 140.037 58.003C140.195 51.3428 140.428 44.6826 140.873 38.0223ZM103.345 49.2776C106.055 49.5067 108.712 49.8328 111.368 50.1447L119.306 51.095C121.948 51.4059 124.588 51.6655 127.238 51.9246C129.891 52.1771 132.543 52.3334 135.259 52.5647C132.613 53.2038 129.906 53.5553 127.185 53.6131C124.471 53.6723 121.756 53.5439 119.059 53.2286C116.369 52.9131 113.7 52.4364 111.067 51.8011C108.426 51.1812 105.843 50.3369 103.345 49.2776ZM103.345 60.7479C106.055 60.977 108.712 61.3031 111.368 61.6151L119.306 62.5653C121.948 62.8762 124.588 63.1358 127.238 63.3949C129.891 63.6474 132.543 63.8037 135.259 64.035C132.613 64.6741 129.906 65.0256 127.185 65.0835C124.471 65.1426 121.756 65.0142 119.059 64.6989C116.369 64.3834 113.7 63.9067 111.067 63.2714C108.426 62.6515 105.843 61.8072 103.345 60.7479ZM103.345 72.2182C106.055 72.4474 108.712 72.7734 111.368 73.0854L119.306 74.0356C121.948 74.3465 124.588 74.6061 127.238 74.8653C129.891 75.1178 132.543 75.274 135.259 75.5054C132.613 76.1444 129.906 76.4959 127.185 76.5538C124.471 76.613 121.756 76.4845 119.059 76.1693C116.369 75.8538 113.7 75.3771 111.067 74.7418C108.426 74.1218 105.843 73.2776 103.345 72.2182ZM103.345 83.6886C106.055 83.9177 108.712 84.2438 111.368 84.5558L119.306 85.506C121.948 85.8169 124.588 86.0765 127.238 86.3356C129.891 86.5881 132.543 86.7444 135.259 86.9757C132.613 87.6148 129.906 87.9663 127.185 88.0241C124.471 88.0833 121.756 87.9549 119.059 87.6396C116.369 87.3241 113.7 86.8474 111.067 86.2121C108.426 85.5922 105.843 84.7479 103.345 83.6886ZM103.345 95.1589C106.055 95.388 108.712 95.7141 111.368 96.0261L119.306 96.9763C121.948 97.2872 124.588 97.5468 127.238 97.806C129.891 98.0585 132.543 98.2147 135.259 98.4461C132.613 99.0851 129.906 99.4366 127.185 99.4945C124.471 99.5537 121.756 99.4252 119.059 99.11C116.369 98.7944 113.7 98.3177 111.067 97.6824C108.426 97.0625 105.843 96.2183 103.345 95.1589Z" fill="#E59413"/>
<path d="M179.213 50.8124L166.697 52.9227C166.558 52.9496 166.416 52.9489 166.277 52.9207C166.139 52.8926 166.008 52.8375 165.891 52.7585C165.774 52.6796 165.674 52.5784 165.596 52.4608C165.518 52.3431 165.464 52.2113 165.437 52.0728L165.022 43.0341C164.995 42.8956 164.996 42.7532 165.024 42.615C165.052 42.4767 165.107 42.3454 165.186 42.2285C165.265 42.1115 165.366 42.0113 165.484 41.9335C165.602 41.8556 165.734 41.8017 165.872 41.7749L178.549 39.1702C178.688 39.1433 178.83 39.144 178.968 39.1721C179.107 39.2003 179.238 39.2554 179.355 39.3343C179.472 39.4132 179.572 39.5144 179.65 39.6321C179.728 39.7497 179.782 39.8816 179.809 40.0201L180.063 49.5532C180.118 49.8329 180.059 50.1227 179.899 50.3588C179.74 50.595 179.493 50.7581 179.213 50.8124ZM172.108 73.0815L159.591 75.1918C159.453 75.2187 159.31 75.218 159.172 75.1899C159.034 75.1617 158.902 75.1066 158.785 75.0277C158.668 74.9487 158.568 74.8476 158.49 74.7299C158.412 74.6122 158.358 74.4804 158.332 74.3419L157.916 65.3032C157.862 65.0235 157.921 64.7337 158.081 64.4976C158.24 64.2614 158.487 64.0983 158.767 64.044L171.444 61.4393C171.582 61.4124 171.725 61.4131 171.863 61.4413C172.001 61.4694 172.133 61.5245 172.25 61.6035C172.366 61.6824 172.467 61.7835 172.545 61.9012C172.622 62.0189 172.676 62.1507 172.703 62.2892L172.958 71.8223C172.985 71.9608 172.984 72.1032 172.956 72.2414C172.928 72.3797 172.872 72.511 172.794 72.6279C172.715 72.7449 172.613 72.8451 172.496 72.9229C172.378 73.0008 172.246 73.0547 172.108 73.0815Z" fill="#EE781D"/>
<path d="M158.767 64.044C158.487 64.0983 158.24 64.2615 158.081 64.4976C157.921 64.7338 157.862 65.0236 157.916 65.3032L158.332 74.342C158.386 74.6217 158.549 74.8683 158.785 75.0277C159.021 75.1871 159.311 75.2461 159.591 75.1919L164.512 74.3621L163.395 63.093L158.767 64.044Z" fill="#CE800D"/>
<path d="M177.007 95.3508L164.49 97.461C164.21 97.5153 163.92 97.4562 163.684 97.2969C163.448 97.1375 163.285 96.8908 163.23 96.6111L162.815 87.5724C162.788 87.4339 162.789 87.2915 162.817 87.1533C162.845 87.015 162.901 86.8837 162.98 86.7668C163.058 86.6499 163.16 86.5496 163.277 86.4718C163.395 86.394 163.527 86.3401 163.665 86.3132L176.343 83.7085C176.481 83.6816 176.624 83.6823 176.762 83.7105C176.9 83.7386 177.031 83.7937 177.148 83.8727C177.265 83.9516 177.366 84.0528 177.444 84.1704C177.521 84.2881 177.575 84.4199 177.602 84.5584L177.857 94.0915C177.884 94.23 177.883 94.3724 177.855 94.5107C177.827 94.6489 177.771 94.7802 177.692 94.8972C177.614 95.0141 177.512 95.1143 177.395 95.1921C177.277 95.27 177.145 95.3239 177.007 95.3508Z" fill="#EE781D"/>
<path d="M163.665 86.313C163.386 86.3673 163.139 86.5305 162.98 86.7666C162.82 87.0028 162.761 87.2926 162.815 87.5723L163.23 96.611C163.261 96.7644 163.324 96.9093 163.417 97.0354C163.509 97.1615 163.628 97.2657 163.765 97.3408C164.822 93.6343 165.382 89.8041 165.431 85.9503L163.665 86.313Z" fill="#CE800D"/>
<path d="M105.534 161.508C109.379 161.508 112.496 158.391 112.496 154.547C112.496 150.702 109.379 147.586 105.534 147.586C101.688 147.586 98.5706 150.702 98.5706 154.547C98.5706 158.391 101.688 161.508 105.534 161.508Z" fill="#B9D4DB"/>
<path d="M96.2498 141.527C98.2438 141.527 99.8602 139.911 99.8602 137.918C99.8602 135.924 98.2438 134.308 96.2498 134.308C94.2558 134.308 92.6394 135.924 92.6394 137.918C92.6394 139.911 94.2558 141.527 96.2498 141.527Z" fill="#B9D4DB"/>
<path d="M119.867 146.683C122.715 146.683 125.024 144.375 125.024 141.527C125.024 138.679 122.715 136.371 119.867 136.371C117.018 136.371 114.709 138.679 114.709 141.527C114.709 144.375 117.018 146.683 119.867 146.683Z" fill="#B9D4DB"/>
<path d="M31.4389 122.756C36.0144 122.756 39.7235 119.048 39.7235 114.474C39.7235 109.9 36.0144 106.192 31.4389 106.192C26.8634 106.192 23.1543 109.9 23.1543 114.474C23.1543 119.048 26.8634 122.756 31.4389 122.756Z" fill="#B9D4DB"/>
<path d="M15.6078 112.889C17.9911 112.889 19.9231 110.958 19.9231 108.575C19.9231 106.192 17.9911 104.261 15.6078 104.261C13.2245 104.261 11.2925 106.192 11.2925 108.575C11.2925 110.958 13.2245 112.889 15.6078 112.889Z" fill="#B9D4DB"/>
<path d="M19.5719 96.3987C20.9466 96.3987 22.0611 95.2845 22.0611 93.9102C22.0611 92.5359 20.9466 91.4218 19.5719 91.4218C18.1972 91.4218 17.0828 92.5359 17.0828 93.9102C17.0828 95.2845 18.1972 96.3987 19.5719 96.3987Z" fill="#B9D4DB"/>
<path d="M33.3512 101.637C36.6469 101.637 39.3186 98.9656 39.3186 95.6708C39.3186 92.376 36.6469 89.7051 33.3512 89.7051C30.0555 89.7051 27.3838 92.376 27.3838 95.6708C27.3838 98.9656 30.0555 101.637 33.3512 101.637Z" fill="#B9D4DB"/>
<path d="M83.5837 29.4827C88.1592 29.4827 91.8683 25.7746 91.8683 21.2004C91.8683 16.6262 88.1592 12.9181 83.5837 12.9181C79.0082 12.9181 75.2991 16.6262 75.2991 21.2004C75.2991 25.7746 79.0082 29.4827 83.5837 29.4827Z" fill="#B9D4DB"/>
<path d="M83.9201 8.62821C86.3033 8.62821 88.2354 6.69672 88.2354 4.3141C88.2354 1.93149 86.3033 0 83.9201 0C81.5368 0 79.6047 1.93149 79.6047 4.3141C79.6047 6.69672 81.5368 8.62821 83.9201 8.62821Z" fill="#B9D4DB"/>
<path d="M112.663 10.5688C114.726 10.5688 116.398 8.89697 116.398 6.83473C116.398 4.77248 114.726 3.10071 112.663 3.10071C110.6 3.10071 108.928 4.77248 108.928 6.83473C108.928 8.89697 110.6 10.5688 112.663 10.5688Z" fill="#B9D4DB"/>
<path d="M99.0746 5.69504C100.449 5.69504 101.564 4.58093 101.564 3.20659C101.564 1.83226 100.449 0.71814 99.0746 0.71814C97.6999 0.71814 96.5854 1.83226 96.5854 3.20659C96.5854 4.58093 97.6999 5.69504 99.0746 5.69504Z" fill="#B9D4DB"/>
<path d="M101.967 22.7554C105.263 22.7554 107.935 20.0845 107.935 16.7897C107.935 13.4949 105.263 10.824 101.967 10.824C98.6717 10.824 96 13.4949 96 16.7897C96 20.0845 98.6717 22.7554 101.967 22.7554Z" fill="#B9D4DB"/>
<path d="M74.2051 111.405L65.7207 106.567L60.8815 115.049L69.3659 119.887L74.2051 111.405Z" fill="#DBE8EC"/>
<path d="M106.592 109.22C111.922 105.202 115.94 99.6946 118.139 93.394C120.337 87.0934 120.618 80.2825 118.945 73.8226C117.271 67.3626 113.72 61.5437 108.739 57.1016C103.758 52.6596 97.5708 49.7939 90.9606 48.8669C84.3505 47.9398 77.6138 48.9932 71.6024 51.8937C65.5911 54.7941 60.575 59.4115 57.1885 65.1619C53.802 70.9123 52.1972 77.5375 52.5769 84.1997C52.9566 90.8619 55.3039 97.2619 59.3219 102.591C61.9899 106.129 65.3292 109.108 69.1489 111.356C72.9686 113.605 77.1939 115.079 81.5835 115.694C85.9732 116.31 90.4411 116.055 94.7322 114.944C99.0233 113.833 103.053 111.888 106.592 109.22ZM64.5758 98.6354C61.3393 94.3453 59.448 89.1921 59.1411 83.8274C58.8343 78.4627 60.1256 73.1275 62.8519 68.4965C65.5782 63.8656 69.6169 60.1469 74.4573 57.8107C79.2977 55.4746 84.7224 54.6259 90.0453 55.372C95.3682 56.1181 100.35 58.4255 104.361 62.0024C108.372 65.5793 111.232 70.265 112.58 75.4669C113.927 80.6688 113.701 86.1533 111.93 91.2268C110.159 96.3003 106.923 100.735 102.631 103.97C96.8768 108.306 89.6352 110.18 82.4989 109.179C75.3625 108.179 68.9157 104.387 64.5758 98.6354Z" fill="#3086A3"/>
<path opacity="0.76" d="M86.2723 109.446C101.281 109.446 113.447 97.283 113.447 82.279C113.447 67.2749 101.281 55.1117 86.2723 55.1117C71.264 55.1117 59.0974 67.2749 59.0974 82.279C59.0974 97.283 71.264 109.446 86.2723 109.446Z" fill="white"/>
<path d="M105.674 83.4716C105.415 87.68 103.794 91.6902 101.056 94.8969C98.3173 98.1037 94.6098 100.333 90.4928 101.248C86.3758 102.164 82.0727 101.716 78.2327 99.9719C74.3927 98.228 71.2243 95.2828 69.2056 91.5807" stroke="#DBE8EC" stroke-width="10" stroke-miterlimit="10"/>
<path d="M71.9306 121.322L58.3406 113.573C57.8251 113.279 57.1689 113.458 56.8749 113.974L36.9975 148.814C36.7035 149.329 36.8831 149.985 37.3985 150.279L50.9886 158.028C51.504 158.322 52.1603 158.143 52.4543 157.628L72.3316 122.787C72.6256 122.272 72.4461 121.616 71.9306 121.322Z" fill="#3086A3"/>
<path d="M52.4539 157.628L72.3313 122.787C72.4012 122.665 72.4463 122.53 72.464 122.39C72.4817 122.25 72.4716 122.108 72.4344 121.971C72.3971 121.835 72.3335 121.708 72.247 121.597C72.1605 121.485 72.0529 121.392 71.9303 121.322L68.5504 119.395C68.7979 119.536 68.9791 119.77 69.0543 120.044C69.1294 120.319 69.0924 120.612 68.9512 120.86L49.0739 155.7C49.004 155.823 48.9106 155.93 48.7991 156.017C48.6876 156.103 48.5602 156.167 48.4241 156.204C48.288 156.241 48.1459 156.251 48.0059 156.234C47.8659 156.216 47.7307 156.171 47.6082 156.101L50.9882 158.029C51.1108 158.098 51.2459 158.143 51.3859 158.161C51.5259 158.179 51.668 158.169 51.8041 158.132C51.9402 158.094 52.0677 158.031 52.1792 157.944C52.2907 157.858 52.384 157.75 52.4539 157.628Z" fill="#25788E"/>
<path d="M40.2655 150.678L60.1428 115.837C60.2128 115.715 60.3061 115.607 60.4176 115.521C60.5291 115.434 60.6566 115.371 60.7927 115.333C60.9288 115.296 61.0709 115.286 61.2109 115.304C61.3509 115.321 61.486 115.366 61.6086 115.436L65.3628 117.577L58.3402 113.573C58.0926 113.431 57.7991 113.394 57.5243 113.47C57.2494 113.545 57.0156 113.726 56.8744 113.974L36.9971 148.814C36.8559 149.061 36.8189 149.355 36.894 149.63C36.9692 149.904 37.1505 150.138 37.3981 150.279L40.6665 152.143C40.5439 152.073 40.4363 151.98 40.3498 151.868C40.2634 151.757 40.1997 151.629 40.1624 151.493C40.1252 151.357 40.1151 151.215 40.1328 151.075C40.1505 150.935 40.1956 150.8 40.2655 150.678Z" fill="#409CB5"/>
<path d="M44.4209 154.284L50.9879 158.028H50.9884L44.4209 154.284Z" fill="#409CB5"/>
<path d="M37.3299 146.939L53.8991 156.387C54.1466 156.528 54.328 156.762 54.4032 157.037C54.4784 157.311 54.4413 157.605 54.3001 157.852L52.7185 160.625C51.7884 162.255 50.2486 163.449 48.4378 163.944C46.6271 164.439 44.6937 164.195 43.063 163.265L36.9241 159.765C36.1167 159.305 35.4079 158.69 34.8381 157.955C34.2684 157.221 33.8489 156.382 33.6036 155.486C33.3583 154.589 33.292 153.653 33.4085 152.731C33.525 151.809 33.8219 150.919 34.2825 150.112L35.8641 147.34C36.0053 147.093 36.239 146.911 36.5139 146.836C36.7888 146.761 37.0823 146.798 37.3299 146.939Z" fill="#DBE8EC"/>
<path d="M37.4955 151.968L39.0771 149.196C39.2183 148.949 39.4521 148.767 39.727 148.692C40.0019 148.617 40.2954 148.654 40.5429 148.795L54.0692 156.508C54.0165 156.462 53.9595 156.422 53.899 156.387L37.3298 146.939C37.0822 146.798 36.7887 146.761 36.5138 146.836C36.2389 146.911 36.0052 147.092 35.864 147.34L34.2823 150.112C33.3523 151.742 33.1081 153.675 33.6035 155.485C34.0989 157.296 35.2933 158.835 36.924 159.765L39.7871 161.397C38.2741 160.415 37.1941 158.891 36.7681 157.138C36.3421 155.385 36.6023 153.536 37.4955 151.968Z" fill="#E8EEEF"/>
<path d="M52.7183 160.625L54.2999 157.852C54.4411 157.605 54.4781 157.311 54.4029 157.037C54.3277 156.762 54.1464 156.528 53.8989 156.387L50.5043 154.451C50.7509 154.593 50.9313 154.827 51.006 155.101C51.0807 155.375 51.0435 155.668 50.9026 155.915L49.321 158.687C48.3909 160.317 46.8511 161.511 45.0404 162.007C43.2296 162.502 41.2962 162.258 39.6655 161.328L36.9182 159.761L36.9239 159.765L43.0628 163.265C43.8702 163.726 44.7605 164.023 45.6827 164.139C46.6049 164.256 47.541 164.189 48.4376 163.944C49.3342 163.699 50.1737 163.28 50.9082 162.71C51.6427 162.14 52.2577 161.432 52.7183 160.625Z" fill="#BAD5DB"/>
</svg>
